<?xml version="1.0" encoding="utf-8"?>
<!-- Generator: Adobe Illustrator 23.0.1, SVG Export Plug-In . SVG Version: 6.00 Build 0)  -->
<svg version="1.1" id="Layer_1" xmlns="http://www.w3.org/2000/svg" xmlns:xlink="http://www.w3.org/1999/xlink" x="0px" y="0px"
	 viewBox="0 0 104.36 104.36" style="enable-background:new 0 0 104.36 104.36;" xml:space="preserve">
<style type="text/css">
	.st0{fill:#FFFFFF;}
</style>
<circle class="st0" cx="52.18" cy="52.18" r="52.18"/>
<path d="M60.32,73.51H26.78c-2.25,0-4.07,1.82-4.07,4.07c0,2.25,1.82,4.07,4.07,4.07h33.55c2.25,0,4.07-1.82,4.07-4.07
	C64.4,75.33,62.57,73.51,60.32,73.51z"/>
<path d="M26.78,68.95h9.51c2.25,0,4.07-1.82,4.07-4.07c0-2.25-1.82-4.07-4.07-4.07h-9.51c-2.25,0-4.07,1.82-4.07,4.07
	C22.7,67.13,24.53,68.95,26.78,68.95z"/>
<path d="M26.78,56.25h13.59c2.25,0,4.07-1.82,4.07-4.07c0-2.25-1.82-4.07-4.07-4.07H26.78c-2.25,0-4.07,1.82-4.07,4.07
	C22.7,54.43,24.53,56.25,26.78,56.25z"/>
<path d="M26.78,43.55h6.93c2.25,0,4.07-1.82,4.07-4.07c0-2.25-1.82-4.07-4.07-4.07h-6.93c-2.25,0-4.07,1.82-4.07,4.07
	C22.7,41.73,24.53,43.55,26.78,43.55z"/>
<path d="M26.78,30.85c2.25,0,4.07-1.82,4.07-4.07c0-2.25-1.82-4.07-4.07-4.07s-4.07,1.82-4.07,4.07
	C22.7,29.03,24.53,30.85,26.78,30.85z"/>
<path d="M77.72,73.51h-5.58c-2.25,0-4.07,1.82-4.07,4.07c0,2.25,1.82,4.07,4.07,4.07h5.58c2.25,0,4.07-1.82,4.07-4.07
	C81.79,75.33,79.97,73.51,77.72,73.51z"/>
<path d="M77.72,60.81c-0.05,0-0.09,0.01-0.14,0.01v-0.01h-8.83h-0.68H47.87c-2.25,0-4.07,1.82-4.07,4.07c0,2.25,1.82,4.07,4.07,4.07
	h20.19h0.68h8.83v-0.01c0.05,0,0.09,0.01,0.14,0.01c2.25,0,4.07-1.82,4.07-4.07C81.79,62.63,79.97,60.81,77.72,60.81z"/>
<path d="M77.72,35.4c-0.05,0-0.09,0.01-0.14,0.01V35.4h-7c-2.25,0-4.07,1.82-4.07,4.07c0,2.25,1.82,4.07,4.07,4.07h7v-0.01
	c0.05,0,0.09,0.01,0.14,0.01c2.25,0,4.07-1.82,4.07-4.07C81.79,37.23,79.97,35.4,77.72,35.4z"/>
<path d="M77.72,30.85c2.25,0,4.07-1.82,4.07-4.07c0-2.25-1.82-4.07-4.07-4.07c-2.25,0-4.07,1.82-4.07,4.07
	C73.65,29.03,75.47,30.85,77.72,30.85z"/>
<path d="M52.18,56.25c2.25,0,4.07-1.82,4.07-4.07c0-2.25-1.82-4.07-4.07-4.07c-2.25,0-4.07,1.82-4.07,4.07
	C48.11,54.43,49.93,56.25,52.18,56.25z"/>
<path d="M63.99,56.25h13.59c2.25,0,4.07-1.82,4.07-4.07c0-2.25-1.82-4.07-4.07-4.07H63.99c-2.25,0-4.07,1.82-4.07,4.07
	C59.92,54.43,61.74,56.25,63.99,56.25z"/>
</svg>
