<?xml version="1.0" encoding="utf-8"?>
<!-- Generator: Adobe Illustrator 23.0.1, SVG Export Plug-In . SVG Version: 6.00 Build 0)  -->
<svg version="1.1" id="Layer_1" xmlns="http://www.w3.org/2000/svg" xmlns:xlink="http://www.w3.org/1999/xlink" x="0px" y="0px"
	 viewBox="0 0 104.4 104.4" style="enable-background:new 0 0 104.4 104.4;" xml:space="preserve">
<style type="text/css">
	.st0{fill:#FFFFFF;}
</style>
<path class="st0" d="M52.2,0C23.4,0,0,23.4,0,52.2c0,28.8,23.4,52.2,52.2,52.2s52.2-23.4,52.2-52.2C104.4,23.4,81,0,52.2,0z
	 M64,48.1h13.6c2.2,0,4.1,1.8,4.1,4.1s-1.8,4.1-4.1,4.1H64c-2.2,0-4.1-1.8-4.1-4.1S61.7,48.1,64,48.1z M52.2,48.1
	c2.2,0,4.1,1.8,4.1,4.1s-1.8,4.1-4.1,4.1s-4.1-1.8-4.1-4.1S49.9,48.1,52.2,48.1z M26.8,22.7c2.2,0,4.1,1.8,4.1,4.1s-1.8,4.1-4.1,4.1
	s-4.1-1.8-4.1-4.1C22.7,24.5,24.5,22.7,26.8,22.7z M26.8,35.4h6.9c2.2,0,4.1,1.8,4.1,4.1s-1.8,4.1-4.1,4.1h-6.9
	c-2.2,0-4.1-1.8-4.1-4.1C22.7,37.2,24.5,35.4,26.8,35.4z M26.8,48.1h13.6c2.2,0,4.1,1.8,4.1,4.1s-1.8,4.1-4.1,4.1H26.8
	c-2.2,0-4.1-1.8-4.1-4.1C22.7,49.9,24.5,48.1,26.8,48.1z M26.8,60.8h9.5c2.2,0,4.1,1.8,4.1,4.1s-1.8,4.1-4.1,4.1h-9.5
	c-2.2,0-4.1-1.8-4.1-4.1C22.7,62.6,24.5,60.8,26.8,60.8z M60.3,81.6H26.8c-2.2,0-4.1-1.8-4.1-4.1s1.8-4.1,4.1-4.1h33.5
	c2.2,0,4.1,1.8,4.1,4.1S62.6,81.6,60.3,81.6z M47.9,69c-2.2,0-4.1-1.8-4.1-4.1s1.8-4.1,4.1-4.1h20.2h0.7h8.8v0c0,0,0.1,0,0.1,0
	c2.2,0,4.1,1.8,4.1,4.1c0,2.2-1.8,4.1-4.1,4.1c-0.1,0-0.1,0-0.1,0v0h-8.8h-0.7H47.9z M77.7,81.6h-5.6c-2.2,0-4.1-1.8-4.1-4.1
	s1.8-4.1,4.1-4.1h5.6c2.2,0,4.1,1.8,4.1,4.1S80,81.6,77.7,81.6z M77.7,43.5c-0.1,0-0.1,0-0.1,0v0h-7c-2.2,0-4.1-1.8-4.1-4.1
	s1.8-4.1,4.1-4.1h7v0c0,0,0.1,0,0.1,0c2.2,0,4.1,1.8,4.1,4.1C81.8,41.7,80,43.5,77.7,43.5z M77.7,30.8c-2.2,0-4.1-1.8-4.1-4.1
	s1.8-4.1,4.1-4.1s4.1,1.8,4.1,4.1S80,30.8,77.7,30.8z"/>
</svg>
